<svg width="80" height="80" viewBox="0 0 80 80" fill="none" xmlns="http://www.w3.org/2000/svg">
<g clip-path="url(#clip0_560_841)">
<path d="M78.6665 77.3345H1.33424C0.597842 77.3345 0.000976562 77.9311 0.000976562 78.6673C0.000976562 79.4034 0.597842 80.0001 1.33424 80.0001H78.6663C79.4027 80.0001 79.9996 79.4033 79.9996 78.6673C79.9996 77.9313 79.4029 77.3345 78.6665 77.3345Z" fill="#FEB300"/>
<path d="M78.6667 66.6656H64.0002C63.2639 66.6656 62.667 67.2626 62.667 67.999C62.667 68.7355 63.2639 69.3325 64.0002 69.3325H78.6667C79.403 69.3325 79.9999 68.7355 79.9999 67.999C79.9999 67.2626 79.403 66.6656 78.6667 66.6656Z" fill="#FEB300"/>
<path d="M78.6667 72.0001H64.0002C63.2639 72.0001 62.667 72.5971 62.667 73.3335C62.667 74.07 63.2639 74.6669 64.0002 74.6669H78.6667C79.403 74.6669 79.9999 74.07 79.9999 73.3335C79.9999 72.5971 79.403 72.0001 78.6667 72.0001Z" fill="#FEB300"/>
<path d="M58.6668 66.6656H1.33424C0.597842 66.6656 0.000976562 67.2626 0.000976562 67.999C0.000976562 68.7355 0.597842 69.3325 1.33424 69.3325H58.6666C59.403 69.3325 59.9999 68.7355 59.9999 67.999C59.9999 67.2626 59.4032 66.6656 58.6668 66.6656Z" fill="#FEB300"/>
<path d="M1.33425 74.6673H16.0009C16.7373 74.6673 17.3341 74.0703 17.3341 73.3337C17.3341 72.5971 16.7373 72.0001 16.0009 72.0001H1.33425C0.597846 72.0001 0.000976562 72.5971 0.000976562 73.3337C0.000976562 74.0703 0.598002 74.6673 1.33425 74.6673Z" fill="#FEB300"/>
<path d="M58.6673 72.0001H21.3342C20.5978 72.0001 20.001 72.5971 20.001 73.3335C20.001 74.07 20.5978 74.6669 21.3342 74.6669H58.6671C59.4035 74.6669 60.0004 74.07 60.0004 73.3335C60.0004 72.5971 59.4037 72.0001 58.6673 72.0001Z" fill="#FEB300"/>
<path d="M9.11371 50.074C8.90387 49.6438 8.47951 49.3591 8.0017 49.328C7.52406 49.2969 7.06641 49.5244 6.80267 49.9239C6.53892 50.3234 6.50955 50.8335 6.7258 51.2606C6.98095 51.7729 7.26922 52.2682 7.58843 52.7432C8.00764 53.33 8.81747 53.4772 9.41636 53.0753C10.0153 52.6735 10.186 51.8683 9.80166 51.258C9.54761 50.8782 9.31777 50.4827 9.11371 50.074Z" fill="#FEB300"/>
<path d="M8.0005 45.3335C8.00706 39.4451 12.7788 34.6733 18.667 34.6666C19.4034 34.6666 20.0003 34.0695 20.0003 33.3333C20.0003 32.5969 19.4034 32 18.667 32C11.3067 32.0081 5.34195 37.9731 5.33398 45.3335C5.33398 46.0699 5.93085 46.6668 6.66724 46.6668C7.40364 46.6668 8.0005 46.0697 8.0005 45.3335Z" fill="#FEB300"/>
<path d="M18.668 37.3325C14.2497 37.3325 10.668 40.9143 10.668 45.3327C10.668 49.7511 14.2497 53.3329 18.668 53.3329C23.0862 53.3329 26.6679 49.7511 26.6679 45.3327C26.6636 40.916 23.0844 37.3369 18.668 37.3325ZM18.668 50.6661C15.7225 50.6661 13.3347 48.2783 13.3347 45.3327C13.3347 42.3872 15.7225 39.9993 18.668 39.9993C21.6134 39.9993 24.0012 42.3872 24.0012 45.3327C24.0012 48.2783 21.6134 50.6661 18.668 50.6661Z" fill="#FEB300"/>
<path d="M78.6667 61.3334H77.1868C78.9858 59.5818 80.0003 57.1776 80 54.6667C79.9983 51.6164 78.5044 48.7599 76.0001 47.0187V28C76.0001 26.5272 74.8062 25.3333 73.3334 25.3333H65.3335V13.3333C65.3335 12.5969 64.7367 12 64.0003 12H60.0003C59.2639 12 58.6671 12.5969 58.6671 13.3333C58.6671 14.0697 59.2639 14.6666 60.0003 14.6666H62.667V25.3333H45.334C44.5976 25.3333 44.0007 25.9302 44.0007 26.6666V30.6666H38.9341C35.9054 26.1592 31.2469 23.0019 25.9384 21.8586L24.677 16.1386C24.5754 15.6723 24.2325 15.2958 23.7775 15.1516C23.3225 15.0073 22.8253 15.117 22.4734 15.4394C22.1216 15.7617 21.9689 16.2477 22.073 16.7133L23.1089 21.4106C22.5183 21.3613 21.9277 21.3333 21.3342 21.3333H14.6678C13.9314 21.3333 13.3345 21.9302 13.3345 22.6666C13.3345 23.403 13.9315 23.9999 14.6678 23.9999H17.3344V26.7346C9.20802 27.3028 2.39297 33.0844 0.507376 41.0096C-1.37822 48.9348 2.10298 57.1661 9.10255 61.3334H1.33455C0.598156 61.3334 0.00129068 61.9304 0.00129068 62.6667C0.00129068 63.403 0.598156 64 1.33455 64H78.6666C79.403 64 79.9998 63.4031 79.9998 62.6667C79.9998 61.9303 79.4031 61.3334 78.6667 61.3334ZM20.001 24H21.3342C31.6403 24.0074 39.9933 32.3605 40.0006 42.6668C40.0006 43.4032 40.5975 44.0001 41.3339 44.0001C42.0703 44.0001 42.6672 43.403 42.6672 42.6668C42.6661 39.4316 41.9264 36.2394 40.5045 33.3335H69.3335C70.0698 33.3335 70.6667 32.7365 70.6667 32.0002C70.6667 31.2639 70.0698 30.6669 69.3335 30.6669H46.6673V28.0002H73.3335V45.7335C70.8303 44.9765 68.1235 45.3157 65.8843 46.6668H37.266C37.298 46.2241 37.334 45.7841 37.334 45.3335C37.3188 35.5511 29.7578 27.438 20.001 26.7349V24ZM2.66797 45.3335C2.66797 36.4969 9.83129 29.3335 18.6677 29.3335C27.5041 29.3335 34.6674 36.4969 34.6674 45.3335C34.6674 54.1701 27.5041 61.3336 18.6677 61.3336C9.83519 61.3239 2.6775 54.166 2.66797 45.3335ZM28.2329 61.3334C32.6461 58.694 35.7777 54.3537 36.8913 49.3334H63.0242C60.4044 53.0682 60.8822 58.1523 64.1521 61.3334H28.2329ZM70.6669 61.3334C66.9869 61.329 64.0048 58.3468 64.0003 54.6667C64.0003 50.9848 66.9849 47.9999 70.6669 47.9999C74.3487 47.9999 77.3335 50.9848 77.3335 54.6667C77.3335 58.3486 74.3487 61.3334 70.6669 61.3334Z" fill="#FEB300"/>
<path d="M70.667 50.666C68.4579 50.666 66.667 52.457 66.667 54.666C66.667 56.8751 68.4579 58.666 70.667 58.666C72.876 58.666 74.667 56.8752 74.667 54.666C74.667 52.4568 72.876 50.666 70.667 50.666ZM70.667 55.9993C69.9306 55.9993 69.3337 55.4024 69.3337 54.666C69.3337 53.9296 69.9307 53.3327 70.667 53.3327C71.4034 53.3327 72.0002 53.9296 72.0002 54.666C72.0002 55.4024 71.4034 55.9993 70.667 55.9993Z" fill="#FEB300"/>
<path d="M52.0002 38.6664H64.0001C64.7364 38.6664 65.3333 38.0694 65.3333 37.333C65.3333 36.5965 64.7364 35.9996 64.0001 35.9996H52.0002C51.2639 35.9996 50.667 36.5965 50.667 37.333C50.667 38.0694 51.2639 38.6664 52.0002 38.6664Z" fill="#FEB300"/>
<path d="M52.0002 43.9999H64.0001C64.7364 43.9999 65.3333 43.4028 65.3333 42.6665C65.3333 41.9301 64.7364 41.3331 64.0001 41.3331H52.0002C51.2639 41.3331 50.667 41.9302 50.667 42.6665C50.667 43.403 51.2639 43.9999 52.0002 43.9999Z" fill="#FEB300"/>
<path d="M42.7898 10.267C42.7076 10.6166 42.6663 10.9745 42.6671 11.3338C42.6684 13.4152 44.0477 15.2442 46.0485 15.8175C48.0492 16.3908 50.1879 15.5697 51.2909 13.8046C52.0823 14.367 53.0293 14.6685 54.0002 14.6673C54.7366 14.6673 55.3335 14.0702 55.3335 13.334C55.3335 12.5977 54.7366 12.0007 54.0002 12.0007C53.0343 12.0046 52.2048 11.315 52.0323 10.3647C51.9412 9.8645 51.5862 9.45278 51.1048 9.28918C50.6234 9.12542 50.0911 9.23542 49.714 9.57637C49.3368 9.91732 49.174 10.4359 49.2884 10.9314C49.3187 11.0634 49.3339 11.1986 49.3337 11.3341C49.3337 12.4386 48.4383 13.3341 47.3338 13.3341C46.2292 13.3341 45.3338 12.4386 45.3338 11.3341C45.3343 10.8989 45.4744 10.4755 45.7338 10.1261C46.0321 9.72216 46.0781 9.1848 45.8528 8.73588C45.6275 8.28712 45.1693 8.00289 44.6671 8.00055C43.5626 8.00055 42.6671 7.10506 42.6671 6.0005C42.6671 4.89594 43.5626 4.00044 44.6671 4.00044C45.018 3.99701 45.3633 4.0892 45.6657 4.26717C46.2449 4.60921 46.988 4.46624 47.3989 3.93388C48.0239 3.13261 48.984 2.66509 50.0001 2.66713C50.8842 2.66713 51.732 3.01839 52.3571 3.6434C52.9823 4.26842 53.3333 5.11641 53.3333 6.0005C53.3374 6.14488 53.3257 6.28925 53.2987 6.43113C53.2201 6.78567 53.2893 7.15693 53.4907 7.45913C53.6916 7.76101 54.0071 7.96805 54.364 8.03242C55.3142 8.20509 56.0038 9.03464 55.9999 10.0004C55.9999 10.7369 56.5967 11.3338 57.3331 11.3338C58.0695 11.3338 58.6664 10.7369 58.6664 10.0004C58.6689 8.19555 57.6305 6.55114 55.9997 5.77768C55.9164 3.45433 54.4969 1.38897 52.3579 0.478631C50.2189 -0.431706 47.7464 -0.0226326 46.0146 1.52819C45.5771 1.3985 45.123 1.33287 44.6666 1.3335C42.4641 1.33959 40.5657 2.88494 40.1128 5.04047C39.6601 7.196 40.776 9.3748 42.7898 10.267Z" fill="#FEB300"/>
</g>
<defs>
<clipPath id="clip0_560_841">
<rect width="80" height="80" fill="white"/>
</clipPath>
</defs>
</svg>
