<svg width="82" height="82" viewBox="0 0 82 82" fill="none" xmlns="http://www.w3.org/2000/svg">
<g clip-path="url(#clip0_560_858)">
<path d="M73.9922 7.04687H66.358V4.80469C66.358 2.15538 64.2026 0 61.5533 0C58.904 0 56.7486 2.15538 56.7486 4.80469V7.04687H29.8424V4.80469C29.8424 2.15538 27.687 0 25.0377 0C22.3884 0 20.233 2.15538 20.233 4.80469V7.10613C20.0969 7.06849 19.9542 7.04687 19.8061 7.04687H13.4247C9.00927 7.04687 5.41696 10.6392 5.41696 15.0547V42.3345C5.41696 43.2191 6.13414 43.9361 7.01852 43.9361C7.90291 43.9361 8.62009 43.2191 8.62009 42.3345V23.543H66.358C67.2424 23.543 67.9596 22.8259 67.9596 21.9414C67.9596 21.0569 67.2424 20.3399 66.358 20.3399H8.62009V15.0547C8.62009 12.4054 10.7755 10.25 13.4247 10.25H19.8061C19.9542 10.25 20.0969 10.2282 20.233 10.1907V12.2519C20.233 14.9012 22.3884 17.0566 25.0377 17.0566C27.687 17.0566 29.8424 14.9012 29.8424 12.2519V10.25H56.7486V12.2519C56.7486 14.9012 58.904 17.0566 61.5533 17.0566C64.2026 17.0566 66.358 14.9012 66.358 12.2519V10.25H73.9922C76.6415 10.25 78.7969 12.4054 78.7969 15.0547V75.9131C78.7969 77.5031 77.5033 78.7969 75.9131 78.7969C74.323 78.7969 73.0293 77.5031 73.0293 75.9131V71.77C73.0293 70.8855 72.3121 70.1684 71.4277 70.1684H52.7983C51.9139 70.1684 51.1967 70.8855 51.1967 71.77C51.1967 72.6546 51.9139 73.3715 52.7983 73.3715H69.8262V75.9131C69.8262 76.9559 70.0901 77.9379 70.5541 78.7969H6.08594C4.49639 78.7969 3.20312 77.5036 3.20312 75.9141V73.3715H39.0501C39.9345 73.3715 40.6517 72.6546 40.6517 71.77C40.6517 70.8855 39.9345 70.1684 39.0501 70.1684H23.0479C25.8465 67.7582 27.6235 64.1932 27.6235 60.2187C27.6235 52.9773 21.7323 47.0859 14.4907 47.0859C7.24931 47.0859 1.35796 52.9773 1.35796 60.2187C1.35796 64.1932 3.13505 67.7582 5.93363 70.1684H1.60156C0.71718 70.1684 0 70.8855 0 71.77V75.9141C0 79.2698 2.73018 82 6.08594 82H75.9131C79.2693 82 82 79.2695 82 75.9131V15.0547C82 10.6392 78.4077 7.04687 73.9922 7.04687ZM26.6392 12.2519C26.6392 13.1351 25.9208 13.8535 25.0377 13.8535C24.1546 13.8535 23.4361 13.1351 23.4361 12.2519V4.80469C23.4361 3.92159 24.1546 3.20312 25.0377 3.20312C25.9208 3.20312 26.6392 3.92159 26.6392 4.80469V12.2519ZM63.1549 12.2519C63.1549 13.1351 62.4364 13.8535 61.5533 13.8535C60.6703 13.8535 59.9517 13.1351 59.9517 12.2519V4.80469C59.9517 3.92159 60.6703 3.20312 61.5533 3.20312C62.4364 3.20312 63.1549 3.92159 63.1549 4.80469V12.2519ZM4.56109 60.2187C4.56109 54.7435 9.01551 50.2891 14.4907 50.2891C19.9661 50.2891 24.4204 54.7435 24.4204 60.2187C24.4204 65.694 19.9661 70.1484 14.4907 70.1484C9.01551 70.1484 4.56109 65.694 4.56109 60.2187Z" fill="#FEB300"/>
<path d="M75.0023 20.8101C74.7046 20.5122 74.2914 20.3408 73.8701 20.3408C73.4488 20.3408 73.0358 20.5122 72.7379 20.8101C72.4399 21.1079 72.2686 21.5211 72.2686 21.9423C72.2686 22.3635 72.4398 22.7765 72.7379 23.0744C73.0359 23.3723 73.4488 23.5436 73.8701 23.5436C74.2914 23.5436 74.7046 23.3723 75.0023 23.0744C75.3002 22.7765 75.4717 22.3635 75.4717 21.9423C75.4717 21.5211 75.3004 21.1079 75.0023 20.8101Z" fill="#FEB300"/>
<path d="M47.8305 70.6356C47.5327 70.3378 47.1195 70.1679 46.6982 70.1679C46.2771 70.1679 45.8639 70.3378 45.5659 70.6356C45.2681 70.9352 45.0967 71.3469 45.0967 71.7681C45.0967 72.1909 45.268 72.6026 45.5659 72.9021C45.8639 73.2001 46.2771 73.3698 46.6982 73.3698C47.1195 73.3698 47.5327 73.2001 47.8305 72.9021C48.1283 72.6026 48.2998 72.1893 48.2998 71.7681C48.2998 71.3469 48.1284 70.9352 47.8305 70.6356Z" fill="#FEB300"/>
<path d="M36.2344 48.6875C32.8786 48.6875 30.1484 51.4178 30.1484 54.7736C30.1484 58.1295 32.8786 60.8598 36.2344 60.8598C39.5901 60.8598 42.3203 58.1295 42.3203 54.7736C42.3203 51.4178 39.5901 48.6875 36.2344 48.6875ZM36.2344 57.6566C34.6448 57.6566 33.3516 56.3632 33.3516 54.7736C33.3516 53.1841 34.6448 51.8907 36.2344 51.8907C37.8239 51.8907 39.1172 53.1841 39.1172 54.7736C39.1172 56.3632 37.8239 57.6566 36.2344 57.6566Z" fill="#FEB300"/>
<path d="M51.1826 48.6875C47.8269 48.6875 45.0967 51.4178 45.0967 54.7736C45.0967 58.1295 47.8269 60.8598 51.1826 60.8598C54.5384 60.8598 57.2686 58.1295 57.2686 54.7736C57.2686 51.4178 54.5384 48.6875 51.1826 48.6875ZM51.1826 57.6566C49.593 57.6566 48.2998 56.3632 48.2998 54.7736C48.2998 53.1841 49.593 51.8907 51.1826 51.8907C52.7722 51.8907 54.0654 53.1841 54.0654 54.7736C54.0654 56.3632 52.7722 57.6566 51.1826 57.6566Z" fill="#FEB300"/>
<path d="M66.1309 48.6875C62.7751 48.6875 60.0449 51.4178 60.0449 54.7736C60.0449 58.1295 62.7751 60.8598 66.1309 60.8598C69.4866 60.8598 72.2168 58.1295 72.2168 54.7736C72.2168 51.4178 69.4866 48.6875 66.1309 48.6875ZM66.1309 57.6566C64.5413 57.6566 63.248 56.3632 63.248 54.7736C63.248 53.1841 64.5413 51.8907 66.1309 51.8907C67.7204 51.8907 69.0137 53.1841 69.0137 54.7736C69.0137 56.3632 67.7204 57.6566 66.1309 57.6566Z" fill="#FEB300"/>
<path d="M21.2871 32.0307C17.9314 32.0307 15.2012 34.7608 15.2012 38.1167C15.2012 41.4724 17.9314 44.2026 21.2871 44.2026C24.6429 44.2026 27.373 41.4724 27.373 38.1167C27.373 34.7608 24.6429 32.0307 21.2871 32.0307ZM21.2871 40.9995C19.6975 40.9995 18.4043 39.7061 18.4043 38.1167C18.4043 36.5271 19.6975 35.2339 21.2871 35.2339C22.8767 35.2339 24.1699 36.5271 24.1699 38.1167C24.1699 39.7061 22.8767 40.9995 21.2871 40.9995Z" fill="#FEB300"/>
<path d="M51.1826 32.0307C47.8269 32.0307 45.0967 34.7608 45.0967 38.1167C45.0967 41.4724 47.8269 44.2026 51.1826 44.2026C54.5384 44.2026 57.2686 41.4724 57.2686 38.1167C57.2686 34.7608 54.5384 32.0307 51.1826 32.0307ZM51.1826 40.9995C49.593 40.9995 48.2998 39.7061 48.2998 38.1167C48.2998 36.5271 49.593 35.2339 51.1826 35.2339C52.7722 35.2339 54.0654 36.5271 54.0654 38.1167C54.0654 39.7061 52.7722 40.9995 51.1826 40.9995Z" fill="#FEB300"/>
<path d="M66.1309 32.0307C62.7751 32.0307 60.0449 34.7608 60.0449 38.1167C60.0449 41.4724 62.7751 44.2026 66.1309 44.2026C69.4866 44.2026 72.2168 41.4724 72.2168 38.1167C72.2168 34.7608 69.4866 32.0307 66.1309 32.0307ZM66.1309 40.9995C64.5413 40.9995 63.248 39.7061 63.248 38.1167C63.248 36.5271 64.5413 35.2339 66.1309 35.2339C67.7204 35.2339 69.0137 36.5271 69.0137 38.1167C69.0137 39.7061 67.7204 40.9995 66.1309 40.9995Z" fill="#FEB300"/>
<path d="M36.2344 32.0307C32.8786 32.0307 30.1484 34.7608 30.1484 38.1167C30.1484 41.4724 32.8786 44.2026 36.2344 44.2026C39.5901 44.2026 42.3203 41.4724 42.3203 38.1167C42.3203 34.7608 39.5901 32.0307 36.2344 32.0307ZM36.2344 40.9995C34.6448 40.9995 33.3516 39.7061 33.3516 38.1167C33.3516 36.5271 34.6448 35.2339 36.2344 35.2339C37.8239 35.2339 39.1172 36.5271 39.1172 38.1167C39.1172 39.7061 37.8239 40.9995 36.2344 40.9995Z" fill="#FEB300"/>
<path d="M20.1965 56.3158C19.571 55.6903 18.5571 55.6903 17.9315 56.3158L12.7158 61.5315L10.9334 59.7491C10.3078 59.1237 9.29401 59.1237 8.66828 59.7491C8.04287 60.3745 8.04287 61.3886 8.66828 62.0142L11.5833 64.9287C11.8838 65.2291 12.291 65.3979 12.7158 65.3979C13.1405 65.3979 13.5477 65.2291 13.8483 64.9287L20.1965 58.5806C20.822 57.9553 20.822 56.9411 20.1965 56.3158Z" fill="#FEB300"/>
</g>
<defs>
<clipPath id="clip0_560_858">
<rect width="82" height="82" fill="white"/>
</clipPath>
</defs>
</svg>
