<svg width="80" height="74" viewBox="0 0 80 74" fill="none" xmlns="http://www.w3.org/2000/svg">
<g clip-path="url(#clip0_560_895)">
<path d="M64.95 0.266113H4.92361C2.20876 0.266113 0 2.50822 0 5.26407V56.0414C0 58.7973 2.20876 61.0393 4.92361 61.0393H44.2378C44.885 61.0393 45.4097 60.5066 45.4097 59.8497C45.4097 59.1927 44.885 58.6601 44.2378 58.6601H39.8603V50.9637C39.8603 48.9395 38.671 47.1287 36.8304 46.3504L30.6738 43.7463C30.177 43.5361 29.8559 43.0473 29.8559 42.5009V40.6435C31.4335 39.0148 32.357 36.797 32.357 34.4611V29.3834C32.357 25.2276 28.4652 21.8465 23.6818 21.8465C18.8983 21.8465 15.0066 25.2275 15.0066 29.3834V34.4611C15.0066 36.7967 15.93 39.0146 17.5077 40.6435V42.5009C17.5077 43.0473 17.1866 43.5361 16.6897 43.7465L10.5333 46.3504C8.69268 47.1288 7.5033 48.9397 7.5033 50.9638V58.6602H4.92361C3.5011 58.6602 2.34376 57.4854 2.34376 56.0416V15.3396H67.5297V35.0958C67.5297 35.7526 68.0544 36.2852 68.7016 36.2852C69.3488 36.2852 69.8735 35.7526 69.8735 35.0958V5.26407C69.8735 2.50822 67.6649 0.266113 64.95 0.266113ZM9.84706 50.9637C9.84706 49.9031 10.4702 48.9542 11.4347 48.5463L17.5913 45.9424C18.9643 45.3617 19.8515 44.0108 19.8515 42.5009V42.2432C20.2816 42.271 20.7108 42.0575 20.9416 41.6533C21.2658 41.0847 21.0747 40.357 20.5147 40.0277C18.563 38.8806 17.3505 36.7476 17.3505 34.4613V29.3836C17.3505 26.5396 20.1908 24.2259 23.6819 24.2259C27.173 24.2259 30.0134 26.5395 30.0134 29.3836V34.4613C30.0134 36.7486 28.8001 38.882 26.8471 40.0291C26.2869 40.3581 26.0955 41.0858 26.4196 41.6546C26.6368 42.0357 27.0304 42.2487 27.4351 42.2487C27.4609 42.2487 27.4866 42.2454 27.5124 42.2437V42.5012C27.5124 44.0111 28.3996 45.3621 29.7727 45.9427L35.9293 48.5467C36.8937 48.9546 37.5168 49.9036 37.5168 50.964V58.6604H9.84706V50.9637ZM67.5297 12.9604H2.34376V5.26407C2.34376 3.82009 3.5011 2.64526 4.92361 2.64526H64.95C66.3725 2.64526 67.5297 3.82009 67.5297 5.26407V12.9604Z" fill="#FEB300"/>
<path d="M6.18592 6.6123H6.17342C5.52624 6.6123 5.00781 7.14543 5.00781 7.80304C5.00781 8.46064 5.53874 8.99378 6.18592 8.99378C6.8331 8.99378 7.35778 8.46064 7.35778 7.80304C7.35778 7.14543 6.8331 6.6123 6.18592 6.6123Z" fill="#FEB300"/>
<path d="M13.6772 6.6123H13.6647C13.0175 6.6123 12.499 7.14543 12.499 7.80304C12.499 8.46064 13.03 8.99378 13.6772 8.99378C14.3243 8.99378 14.849 8.46064 14.849 7.80304C14.849 7.14543 14.3243 6.6123 13.6772 6.6123Z" fill="#FEB300"/>
<path d="M9.92618 6.6123H9.91368C9.26649 6.6123 8.74805 7.14543 8.74805 7.80304C8.74805 8.46064 9.27899 8.99378 9.92618 8.99378C10.5733 8.99378 11.098 8.46064 11.098 7.80304C11.098 7.14543 10.5733 6.6123 9.92618 6.6123Z" fill="#FEB300"/>
<path d="M63.6985 6.6123H18.6787C18.0315 6.6123 17.5068 7.14543 17.5068 7.80304C17.5068 8.46064 18.0315 8.99378 18.6787 8.99378H63.6985C64.3457 8.99378 64.8704 8.46064 64.8704 7.80304C64.8704 7.14543 64.3457 6.6123 63.6985 6.6123Z" fill="#FEB300"/>
<path d="M79.2137 43.1066L62.3313 37.1457C62.0819 37.0575 61.8107 37.0575 61.5613 37.1457L49.4208 41.4322C48.8095 41.6481 48.4864 42.3261 48.6989 42.9466C48.9116 43.5671 49.5795 43.8949 50.1906 43.6794L61.9461 39.5288L77.6006 45.0561C77.4642 46.5752 77.0051 49.9784 75.4829 54.0538C73.6273 59.022 69.7794 65.9592 61.9461 71.1342C54.1466 65.9811 50.3014 59.0813 48.442 54.1407C46.36 48.6085 46.2362 44.247 46.2352 44.2036C46.2206 43.5474 45.693 43.0287 45.0387 43.0408C44.3917 43.0548 43.8783 43.5985 43.8919 44.2553C43.8959 44.4463 44.0147 48.9987 46.2177 54.8971C48.2495 60.3373 52.5202 67.9902 61.3266 73.5541C61.5161 73.674 61.731 73.7339 61.9458 73.7339C62.1607 73.7339 62.3755 73.6741 62.5651 73.5541C71.3715 67.9902 75.6421 60.3373 77.674 54.8971C79.8771 48.9987 79.9959 44.4463 79.9998 44.2553C80.011 43.7398 79.6934 43.2759 79.2137 43.1066Z" fill="#FEB300"/>
<path d="M69.5643 49.8157C69.1067 49.3511 68.3646 49.3511 67.9071 49.8157L60.6615 57.1705L56.3519 52.796C55.8943 52.3314 55.1523 52.3314 54.6948 52.796C54.2371 53.2606 54.2371 54.0137 54.6948 54.4781L59.8329 59.6937C60.0616 59.926 60.3616 60.0421 60.6615 60.0421C60.9613 60.0421 61.2613 59.926 61.4901 59.6937L69.5643 51.4979C70.022 51.0333 70.022 50.2801 69.5643 49.8157Z" fill="#FEB300"/>
<path d="M59.9469 20.5776H39.938C38.6022 20.5776 37.5156 21.6808 37.5156 23.0366V26.8449C37.5156 28.2009 38.6023 29.3038 39.938 29.3038H59.9468C61.2825 29.304 62.3693 28.2009 62.3693 26.8449V23.0366C62.3693 21.6806 61.2825 20.5776 59.9469 20.5776ZM60.0254 26.8449C60.0254 26.889 59.99 26.9247 59.9468 26.9247H39.938C39.8947 26.9248 39.8594 26.889 39.8594 26.8449V23.0366C39.8594 22.9925 39.8947 22.9568 39.938 22.9568H59.9468C59.9902 22.9568 60.0254 22.9927 60.0254 23.0366V26.8449Z" fill="#FEB300"/>
<path d="M54.9451 32.002H39.9385C39.2913 32.002 38.7666 32.5351 38.7666 33.1926C38.7666 33.8502 39.2913 34.3834 39.9385 34.3834H54.9451C55.5923 34.3834 56.117 33.8502 56.117 33.1926C56.117 32.5351 55.5923 32.002 54.9451 32.002Z" fill="#FEB300"/>
<path d="M48.6924 37.0796H39.9385C39.2913 37.0796 38.7666 37.6124 38.7666 38.2697C38.7666 38.927 39.2913 39.4599 39.9385 39.4599H48.6924C49.3396 39.4599 49.8643 38.927 49.8643 38.2697C49.8643 37.6124 49.3396 37.0796 48.6924 37.0796Z" fill="#FEB300"/>
</g>
<defs>
<clipPath id="clip0_560_895">
<rect width="80" height="74" fill="white"/>
</clipPath>
</defs>
</svg>
