<svg width="76" height="88" viewBox="0 0 76 88" fill="none" xmlns="http://www.w3.org/2000/svg">
<g clip-path="url(#clip0_560_872)">
<path d="M15.389 82.3215C10.7597 82.3215 6.99512 78.502 6.99512 73.8056C6.99512 69.109 10.7597 65.2896 15.389 65.2896C20.0181 65.2896 23.7828 69.109 23.7828 73.8056C23.7828 78.502 20.0181 82.3215 15.389 82.3215ZM15.389 68.1283C12.3028 68.1283 9.79306 70.6746 9.79306 73.8056C9.79306 76.9365 12.3028 79.4828 15.389 79.4828C18.4751 79.4828 20.9848 76.9365 20.9848 73.8056C20.9848 70.6746 18.4751 68.1283 15.389 68.1283Z" fill="#FEB300"/>
<path d="M60.156 19.871C56.299 19.871 53.1611 16.6875 53.1611 12.7744C53.1611 8.86134 56.299 5.6778 60.156 5.6778C64.013 5.6778 67.1508 8.86134 67.1508 12.7744C67.1508 16.6875 64.013 19.871 60.156 19.871ZM60.156 8.51643C57.8421 8.51643 55.959 10.4268 55.959 12.7744C55.959 15.1219 57.8421 17.0324 60.156 17.0324C62.4698 17.0324 64.3529 15.1219 64.3529 12.7744C64.3529 10.4268 62.4698 8.51643 60.156 8.51643Z" fill="#FEB300"/>
<path d="M15.3887 87.9997C7.67474 87.9997 1.39896 81.6326 1.39896 73.8063C1.39896 70.0068 2.92105 66.3562 5.59588 63.6907V27.6383C2.03131 24.6562 0 20.3145 0 15.6136C0 9.41116 3.62333 3.79628 9.2332 1.30961L11.1918 0.440979V14.904L15.3887 18.0974L19.5855 14.904V0.440979L21.5442 1.30961C27.154 3.79628 30.7773 9.41116 30.7773 15.6136C30.7773 20.3145 28.746 24.6562 25.1814 27.6383V63.6907C27.8563 66.3562 29.3783 70.0068 29.3783 73.8063C29.3783 81.6326 23.1026 87.9997 15.3887 87.9997ZM8.39381 4.99846C4.93696 7.34036 2.79794 11.3032 2.79794 15.6136C2.79794 19.6531 4.63338 23.3717 7.83562 25.8158L8.39381 26.2416V64.9397L7.92796 65.3627C5.55671 67.5187 4.1969 70.5973 4.1969 73.8063C4.1969 80.067 9.21781 85.161 15.3887 85.161C21.5595 85.161 26.5805 80.067 26.5805 73.8063C26.5805 70.5973 25.2206 67.5187 22.8494 65.3613L22.3835 64.9383V26.2402L22.9417 25.8144C26.1439 23.3717 27.9794 19.6531 27.9794 15.6136C27.9794 11.3032 25.8403 7.34036 22.3835 4.99846V16.3234L15.3887 21.6458L8.39381 16.3234V4.99846Z" fill="#FEB300"/>
<path d="M16.7873 59.6124H13.9894C12.4463 59.6124 11.1914 58.3393 11.1914 56.7737V34.0642C11.1914 32.4987 12.4463 31.2256 13.9894 31.2256H16.7873C18.3304 31.2256 19.5853 32.4987 19.5853 34.0642V56.7737C19.5853 58.3393 18.3304 59.6124 16.7873 59.6124ZM13.9894 34.0642V56.7737H16.7887L16.7873 34.0642H13.9894Z" fill="#FEB300"/>
<path d="M65.1441 80.9014H55.1652L50.1289 72.3855L55.1652 63.8696H65.1441L70.1804 72.3855L65.1441 80.9014ZM56.7502 78.0628H63.5591L66.9165 72.3855L63.5591 66.7083H56.7502L53.3928 72.3855L56.7502 78.0628Z" fill="#FEB300"/>
<path d="M60.1562 87.9991C51.6714 87.9991 44.7676 80.9946 44.7676 72.3864C44.7676 66.499 48.0328 61.1395 53.1613 58.4839V23.3837C49.6905 21.0233 47.5655 17.0306 47.5655 12.7741C47.5655 5.72988 53.2145 0 60.1562 0C67.0979 0 72.7469 5.72988 72.7469 12.7741C72.7469 17.0306 70.6219 21.0233 67.151 23.3837V58.4839C72.2797 61.1395 75.5449 66.4975 75.5449 72.3864C75.5449 80.9946 68.6409 87.9991 60.1562 87.9991ZM60.1562 2.83868C54.7561 2.83868 50.3635 7.29683 50.3635 12.7741C50.3635 16.2997 52.2408 19.594 55.2612 21.3696L55.9592 21.7798V60.3106L55.1199 60.6825C50.5313 62.7178 47.5655 67.3122 47.5655 72.3864C47.5655 79.4306 53.2145 85.1605 60.1562 85.1605C67.0979 85.1605 72.7469 79.4306 72.7469 72.3864C72.7469 67.3122 69.7811 62.7178 65.1925 60.6825L64.3531 60.3106V21.7798L65.0512 21.3696C68.0716 19.594 69.949 16.2997 69.949 12.7741C69.949 7.29683 65.5562 2.83868 60.1562 2.83868Z" fill="#FEB300"/>
<path d="M58.7568 58.1934H61.5547V61.0315H58.7568V58.1934Z" fill="#FEB300"/>
<path d="M58.7568 39.7427H61.5547V55.3549H58.7568V39.7427Z" fill="#FEB300"/>
<path d="M61.5547 36.9021H58.7568V34.0633H61.5547V36.9021ZM61.5547 31.2246H58.7568V28.3859H61.5547V31.2246ZM61.5547 25.5471H58.7568V22.7084H61.5547V25.5471Z" fill="#FEB300"/>
</g>
<defs>
<clipPath id="clip0_560_872">
<rect width="76" height="88" fill="white"/>
</clipPath>
</defs>
</svg>
