<svg width="1012" height="168" viewBox="0 0 1012 168" fill="none" xmlns="http://www.w3.org/2000/svg">
<path d="M44.3092 23.5999C31.9092 36.6666 16.9759 52.2666 11.1092 58.3999C5.24255 64.5333 0.309221 70.3999 0.0425541 71.4666C-0.357446 73.0666 2.97589 73.3333 19.3759 73.3333H39.2426L68.9759 41.9999L98.7092 10.6666H505.109H911.509L936.709 36.9333C950.709 51.4666 964.043 65.5999 966.443 68.2666L970.709 73.3333H991.243C1002.58 73.3333 1011.78 72.9333 1011.78 72.2666C1011.78 71.3333 981.776 39.4666 956.043 12.9332L943.376 -8.52048e-05H505.109H66.8425L44.3092 23.5999Z" fill="black"/>
<path d="M126.976 82.9333C111.642 99.2 99.1089 113.067 99.1089 113.867C99.1089 114.8 104.976 115.467 115.509 115.733L132.042 116.133L137.642 110.4C140.709 107.2 152.176 95.2 162.976 83.6L182.842 62.6666H198.976H215.109L240.309 89.3333L265.376 116H281.909C291.109 116 298.576 115.467 299.109 114.667C299.909 113.467 291.509 104.267 257.509 68.9333L242.309 53.3333H198.709H154.976L126.976 82.9333Z" fill="black"/>
<path d="M329.109 58V62.6667H390.976C451.509 62.6667 452.842 62.6667 456.309 65.4667C461.109 69.2 461.242 77.3333 456.442 82L453.242 85.3333H391.109H328.976L329.376 90.1333L329.776 94.8L368.042 94.6667C411.109 94.5333 406.176 93.6 435.776 107.2L455.109 116L477.642 115.733C492.442 115.467 500.442 114.8 500.709 113.867C500.976 113.067 494.042 109.333 485.242 105.467C476.576 101.6 468.309 97.7333 466.976 96.6667C464.709 94.9333 464.976 94.8 470.576 94.6667C477.776 94.6667 484.176 90.9333 488.842 84C494.576 75.6 491.509 63.8667 481.909 56.8C478.309 54 476.576 54 403.642 53.6L329.109 53.3333V58Z" fill="black"/>
<path d="M552.043 84.2666L552.443 115.333H566.443H580.443L580.843 84.2666L581.109 53.3332H566.443H551.776L552.043 84.2666Z" fill="black"/>
<path d="M629.376 84.2666L629.776 115.333H643.776H657.776L658.176 84.2666L658.442 53.3332H643.776H629.109L629.376 84.2666Z" fill="black"/>
<path d="M726.976 56.5334C707.376 65.7334 702.976 90.2668 718.309 105.6C728.842 116.133 728.442 116.133 808.442 115.733L877.776 115.333V111.333V107.333L818.442 106.667C766.576 106.133 758.576 105.733 755.109 103.733C747.242 99.4668 742.442 92.0001 742.442 84.2668C742.576 78.5334 747.109 70.0001 751.909 66.5334L756.442 63.3334L817.109 62.6668L877.776 62.0001V58.0001V54.0001L805.776 53.7334L733.776 53.3334L726.976 56.5334Z" fill="black"/>
<path d="M0.0423951 96.8C0.309062 98 15.1091 114.533 33.1091 133.467L65.7757 168H505.109H944.576L978.176 132.533C996.709 113.067 1011.51 96.6667 1011.11 95.8667C1010.58 95.2 1001.64 94.6667 991.242 94.6667H972.176L948.309 119.6C935.242 133.467 921.376 147.867 917.642 151.6L910.842 158.667H505.242H99.6424L83.3757 141.733C74.4424 132.4 60.8424 118 53.1091 109.867L39.1091 94.9333L19.3757 94.8C1.77573 94.6667 -0.357605 94.9333 0.0423951 96.8Z" fill="black"/>
</svg>
