<svg width="332" height="427" viewBox="0 0 332 427" fill="none" xmlns="http://www.w3.org/2000/svg">
<path d="M128.4 50.9332C114.4 69.4665 90.6666 101.067 75.4666 121.067C44.2666 162.133 40.6666 168.133 41.7333 176.933C42.5333 183.867 44.6666 187.2 70.2666 220.267C80.6666 233.733 103.467 263.2 120.933 285.867C138.533 308.533 153.6 327.467 154.4 327.733C155.733 328.133 156 312.667 155.733 255.733L155.333 183.333L151.6 175.6C149.467 171.2 141.2 160.4 133.067 150.933C115.2 130.4 113.333 127.6 113.333 120.533C113.333 113.867 116.8 108.533 136.667 83.9999C157.867 57.8665 156 62.2665 156 38.1332C156 26.6665 155.467 17.3332 154.8 17.3332C154.133 17.3332 142.267 32.5332 128.4 50.9332ZM109.733 163.733C118.133 173.467 126.267 183.733 127.6 186.4C129.6 190.667 130 195.467 130.4 219.867L130.8 248.4L117.067 231.733C109.467 222.533 98.5333 209.2 92.6666 202.133C79.0666 185.6 75.9999 179.867 75.9999 171.467C75.9999 164.667 77.5999 161.067 86.3999 148.933C90.1333 143.6 91.3333 142.8 92.6666 144.267C93.5999 145.2 101.333 154 109.733 163.733Z" fill="black"/>
<path d="M170.667 38.1333C170.667 62.1333 167.733 55.7333 193.6 88.4C211.467 110.667 213.333 113.867 213.333 120.933C213.333 127.467 211.333 130.533 194 150.667C172.4 175.6 170.667 180.8 170.667 219.333C170.667 256.8 172.4 328 173.2 328C173.6 327.867 178.533 321.733 184.133 314.267C189.733 306.8 201.2 291.6 209.6 280.667C275.2 194.8 282.8 184.4 284.267 179.733C286.133 173.2 284.533 167.867 277.333 157.2C266.4 141.067 173.2 17.3333 172 17.3333C171.2 17.3333 170.667 25.2 170.667 38.1333ZM239.733 148.8C251.733 163.333 253.333 174.667 245.067 187.067C239.333 195.6 197.467 247.2 195.733 247.867C194.933 248.133 194.533 238.4 194.933 221.867C195.333 196.533 195.467 194.933 198.8 187.867C200.8 183.733 208.133 173.733 215.6 165.2C222.8 156.8 230 148.667 231.333 146.933C232.8 145.333 234.4 144 234.8 144C235.333 144 237.6 146.133 239.733 148.8Z" fill="black"/>
<path d="M213.733 348.933L197.333 349.467V353.333V357.2L218.4 357.6L239.333 358V367.333V376.667H224H208.667L208.267 369.6L207.867 362.667H202.533H197.333V374V385.333H219.333C249.467 385.333 252 384 252 367.333C252 350.133 247.6 348 213.733 348.933Z" fill="black"/>
<path d="M265.733 349.467C258.533 351.6 257.333 354.8 257.333 370.933V385.333H262.667H267.867L268.267 371.6L268.667 358H287.333H306L306.4 361.6L306.8 365.333H291.467H276V369.333V373.333H291.333H306.667V379.467V385.467L312.4 385.067L318 384.667V370.533C318 354.4 316.8 351.733 308.133 349.333C302.133 347.733 271.6 347.733 265.733 349.467Z" fill="black"/>
<path d="M14.4 368L14.8 386.667H37.7333C64.1333 386.667 69.4667 386 73.2 382.4C76.9333 379.067 76.9333 371.333 73.4667 369.067C70.9333 367.467 70.9333 367.467 73.4667 364.267C76.9333 359.867 76.6667 357.867 72.1333 353.2L68.2667 349.333H41.0667H14L14.4 368ZM63.7333 360.267C64.1333 362.533 62.5333 362.667 44.8 362.667C29.4667 362.667 25.3333 362.267 25.3333 360.933C25.3333 359.867 25.7333 358.667 26.2667 358.133C26.8 357.733 35.3333 357.467 45.2 357.6C61.2 358 63.3333 358.267 63.7333 360.267ZM64.6667 374.667C64.6667 376.4 61.4667 376.667 45.0667 377.067C25.8667 377.333 25.3333 377.333 25.3333 374.667C25.3333 372 25.8667 372 45.0667 372.267C61.4667 372.667 64.6667 372.933 64.6667 374.667Z" fill="black"/>
<path d="M80.2667 367.6L80.6667 386L107.067 386.4L133.333 386.667V382V377.333H112.667C92.9334 377.333 92 377.2 92 374.667C92 372.133 92.9334 372 111.333 372H130.667V367.333V362.667H111.333C92.9334 362.667 92 362.533 92 360C92 357.467 92.9334 357.333 112.667 357.333H133.333V353.333V349.333H106.667H79.8667L80.2667 367.6Z" fill="black"/>
<path d="M138.667 368.133V386.933L142.8 386.133C145.067 385.733 147.867 385.333 148.8 385.333C150.133 385.333 150.667 382.267 150.933 373.467L151.333 361.6L165.333 373.467C178.533 384.533 179.733 385.2 185.733 385.2L192 385.333V367.333V349.333H186H180V361.333V373.467L165.467 361.333C151.733 350.133 150.533 349.333 144.8 349.333H138.667V368.133Z" fill="black"/>
<path d="M120.934 395.733C118.8 396 116.4 397.6 115.067 399.467C110.8 406.133 118.134 413.067 127.734 411.467C133.734 410.533 136 408.4 136 404C136 398 130 394.667 120.934 395.733ZM129.467 398.667C132.267 400.267 132.8 405.333 130.4 407.733C126.667 411.467 117.334 408.267 117.334 403.333C117.334 401.2 122.4 397.333 125.067 397.333C126 397.333 128 398 129.467 398.667Z" fill="black"/>
<path d="M185.333 396.4C181.067 397.867 180.667 398.4 180.667 403.333C180.667 407.6 181.333 408.933 184 410.4C190 413.467 202.8 410.267 199.2 406.667C198.133 405.6 197.2 405.867 196 407.333C194 409.733 187.867 410 185.6 407.733C183.333 405.467 183.6 400.667 186 398.667C187.867 397.067 189.6 397.2 197.333 399.467C200.267 400.267 200.4 400.133 198.667 398.4C195.733 395.333 190.667 394.667 185.333 396.4Z" fill="black"/>
<path d="M215.2 400C218.133 403.2 220 406.667 220 408.8C220 413.2 223.2 412.4 223.733 407.733C224 405.867 225.866 402.667 228.133 400.533C230.266 398.533 232 396.4 232 395.733C232 393.333 228 394.933 224.933 398.533L221.6 402.533L217.866 398.533C212.133 392.533 209.6 393.867 215.2 400Z" fill="black"/>
<path d="M247.6 396.133C241.067 398.667 241.2 407.867 247.867 410.667C252.133 412.4 260.533 411.333 262.667 408.667C264.933 405.867 261.6 404.667 258.8 407.2C253.6 412 245.6 408.533 247.2 402.133C248.267 398 252.4 396.667 257.467 398.667C261.6 400.4 264.133 399.6 261.733 397.2C259.733 395.2 251.733 394.533 247.6 396.133Z" fill="black"/>
<path d="M276 402.533V410.667L283.733 410.4C290.267 410.267 290.533 410.133 285.733 409.733L280.133 409.2L279.733 402.4C279.067 392.133 276 392.267 276 402.533Z" fill="black"/>
<path d="M302.667 402.667V410.667L311.733 410.4C320.133 410.133 320.267 410.133 313.733 409.733C307.733 409.333 306.667 408.8 306.667 406.533C306.667 404.4 307.6 404 312.667 404C316 404 318.667 403.333 318.667 402.667C318.667 401.867 316 401.333 312.667 401.333C308.267 401.333 306.667 400.8 306.667 399.333C306.667 397.867 308.267 397.333 313.467 397.333C317.6 397.333 319.867 396.8 319.333 396C318.933 395.2 314.933 394.667 310.533 394.667H302.667V402.667Z" fill="black"/>
<path d="M16 404C16 413.067 18.2667 414.933 18.9333 406.267L19.3333 400.667L22.6667 406.267C24.5333 409.467 26.6667 412 27.3333 412C28.1333 412 30.2667 409.2 32.2667 405.6L35.8667 399.333L36 405.6C36 409.2 36.6667 412 37.3333 412C38.1333 412 38.6667 408.4 38.6667 404C38.6667 394.667 36.1333 393.2 32.2667 400.133C27.4667 408.8 27.4667 408.8 23.4667 402.133C18.4 393.333 16 394 16 404Z" fill="black"/>
<path d="M53.3331 398.933C49.8664 402.667 49.9998 404.8 53.9998 408.667C62.2664 417.067 78.9331 408.4 71.8664 399.467C68.1331 394.8 57.4664 394.533 53.3331 398.933ZM66.6664 398.667C69.0664 398.667 70.7998 403.867 69.3331 406.667C67.3331 410.4 57.9998 410.4 55.9998 406.8C55.3331 405.333 55.0664 403.2 55.4664 402C56.5331 399.467 61.1998 397.2 63.7331 398.133C64.7998 398.4 66.1331 398.667 66.6664 398.667Z" fill="black"/>
<path d="M84 397.333C84 398 85.7333 398.667 87.8667 398.667C91.6 398.667 91.8667 398.933 92.2667 404.933C92.5333 408.533 93.3333 411.333 94 411.333C94.8 411.333 95.4667 408.533 95.7333 404.933C96.1333 399.333 96.5333 398.667 99.3333 398.667C101.067 398.667 102.933 398 103.333 397.333C103.867 396.533 100.4 396 94.1333 396C88.2667 396 84 396.533 84 397.333Z" fill="black"/>
<path d="M148.267 403.6C148.533 408.133 149.333 411.333 150.4 411.733C151.333 412 152 410.933 152 408.8C152 404.267 156.267 404.133 161.6 408.667C167.067 413.2 171.467 413.2 166.267 408.533L162.4 405.333L165.467 402.8C168.133 400.667 168.267 400 166.8 398.133C165.467 396.533 162.667 396 156.4 396H147.867L148.267 403.6ZM162.133 399.2C164.533 401.067 164.533 401.2 161.067 402C156.133 403.2 152.8 402.4 152.267 399.6C151.733 396.667 158.267 396.4 162.133 399.2Z" fill="black"/>
</svg>
