<svg width="500" height="250" viewBox="0 0 500 250" fill="none" xmlns="http://www.w3.org/2000/svg">
<g clip-path="url(#clip0_327_33)">
<path d="M180 58.4557V117.034L191.875 105.392L203.75 93.7499V59.191V24.5097H233.75H263.75V12.2548V-0.000134178H221.875H180V58.4557Z" fill="black"/>
<path d="M296.25 47.5489V95.2205L283.75 106.005C276.875 111.887 271.25 116.912 271.25 117.157C271.25 117.402 282.25 117.647 295.625 117.647H320V58.8234V-8.63075e-05H308.125H296.25V47.5489Z" fill="black"/>
<path d="M200 106.005L188.125 117.647H226H263.75V106.005V94.3627H237.75H211.875L200 106.005Z" fill="black"/>
<path d="M0 147.059V151.961H234.875H469.875L477.375 164.583C481.5 171.446 485.25 177.819 485.875 178.677C486.5 179.779 488.875 180.147 492.75 179.902L498.5 179.534L487.75 160.907L476.875 142.279L238.5 142.157H0V147.059Z" fill="black"/>
<path d="M38.5 195.098L38.875 218.505L43.125 214.461L47.375 210.417L47.75 195.588L48.125 180.76L60.375 180.392L72.5 180.024V175.858V171.569H55.375H38.125L38.5 195.098Z" fill="black"/>
<path d="M86.25 195.466V219.363H91.375H96.375L96.125 209.804L95.875 200.368H103.25H110.625L111 209.804L111.375 219.363H116.25H121.25V195.466V171.569H116.25H111.375L111 181.005L110.625 190.564H103.25H95.875L96.125 181.005L96.375 171.569H91.375H86.25V195.466Z" fill="black"/>
<path d="M133.75 185.907V200.245L138.75 195.466C143 191.299 143.75 189.951 143.75 185.417V180.147H151.25H158.75V185.662V191.177H152.75C147.25 191.177 146.375 191.667 140.25 197.672C133.875 204.044 133.75 204.167 133.75 211.765V219.363H138.75H143.75V209.559V199.755H151.25H158.75V209.559V219.363H163.75H168.75V195.466V171.569H151.25H133.75V185.907Z" fill="black"/>
<path d="M181.25 195.466V219.363H186.25H191.25L191.375 204.902V190.564L198.875 204.902L206.25 219.363H211.25H216.25V195.466V171.569H211.25H206.25L206.125 185.907V200.368L198.625 185.907L191.25 171.569H186.25H181.25V195.466Z" fill="black"/>
<path d="M228.75 195.711V219.853L233.75 215.074L238.75 210.294V195.221V180.147H251.25H263.75V175.858V171.569H246.25H228.75V195.711Z" fill="black"/>
<path d="M286.25 191.054V210.539L281.25 214.828C278.5 217.157 276.25 219.24 276.25 219.485C276.25 219.73 280.75 219.853 286.25 219.608L296.25 219.118V195.343V171.569H291.25H286.25V191.054Z" fill="black"/>
<path d="M308.75 195.466V219.363H313.75H318.75V195.466V171.569H313.75H308.75V195.466Z" fill="black"/>
<path d="M331.25 185.907V200.245L336.25 195.466C340.5 191.299 341.25 189.951 341.25 185.417V180.147H348.75H356.25V185.662V191.177H350.25C344.75 191.177 343.875 191.667 337.75 197.672C331.375 204.044 331.25 204.167 331.25 211.765V219.363H336.25H341.25V209.559V199.755H348.75H356.25V209.559V219.363H361.25H366.25V195.466V171.569H348.75H331.25V185.907Z" fill="black"/>
<path d="M378.75 195.466V219.363H383.75H388.75L388.875 204.902V190.564L396.375 204.902L403.75 219.363H408.75H413.75V195.466V171.569H408.625H403.625L404 185.049C404.25 192.525 404.125 198.529 403.75 198.529C403.375 198.529 400 192.402 396.25 185.049L389.5 171.569H384.125H378.75V195.466Z" fill="black"/>
<path d="M427.5 195.098V218.627L431.875 214.461L436.125 210.417L436.5 195.588L436.875 180.76L449.375 180.147L461.875 179.534V175.49V171.569H444.75H427.5V195.098Z" fill="black"/>
<path d="M248.75 195.466C248.75 198.897 249.25 199.755 251.25 199.755C253.375 199.755 253.75 200.613 253.75 205.27V210.784H247.75C242.5 210.784 241.125 211.397 237.5 215.074L233.25 219.363H248.5H263.75V205.27V191.177H256.25H248.75V195.466Z" fill="black"/>
<path d="M447.5 195.343C447.5 198.529 448.125 199.632 450.125 200.123C452.25 200.735 452.625 201.593 452.25 205.515L451.875 210.172L445.625 210.539C440.625 210.907 438.625 211.642 435.375 214.829C433.125 216.912 431.25 218.873 431.25 219.24C431.25 219.73 438.125 219.853 446.5 219.608L461.875 219.24V205.147V191.177H454.75H447.5V195.343Z" fill="black"/>
<path d="M3.625 215.074C5 217.402 10.25 226.225 15.25 234.681L24.25 250H262.125H500V244.485V238.971L264.875 238.725L29.75 238.358L21.5 224.51L13.375 210.784H7.25H1L3.625 215.074Z" fill="black"/>
<path d="M46.5 214.828C44.25 217.034 42.5 219.118 42.5 219.363C42.5 219.73 49.25 219.853 57.5 219.608L72.5 219.24V214.951V210.784H61.5C50.75 210.784 50.375 210.907 46.5 214.828Z" fill="black"/>
</g>
<defs>
<clipPath id="clip0_327_33">
<rect width="500" height="250" fill="white"/>
</clipPath>
</defs>
</svg>
