<?xml version="1.0" standalone="no"?>
<!DOCTYPE svg PUBLIC "-//W3C//DTD SVG 20010904//EN"
 "http://www.w3.org/TR/2001/REC-SVG-20010904/DTD/svg10.dtd">
<svg version="1.0" xmlns="http://www.w3.org/2000/svg"
 width="1202.000000pt" height="436.000000pt" viewBox="0 0 1202.000000 436.000000"
 preserveAspectRatio="xMidYMid meet">

<g transform="translate(0.000000,436.000000) scale(0.100000,-0.100000)"
fill="#191919" stroke="none">
<path d="M3730 4017 c-3 -3 -57 -8 -120 -12 -63 -4 -117 -8 -120 -10 -4 -2
-49 -11 -101 -20 -106 -19 -140 -25 -254 -50 -44 -10 -97 -20 -118 -22 -20 -3
-40 -9 -43 -14 -3 -5 -18 -9 -34 -9 -16 0 -41 -5 -57 -11 -15 -6 -48 -15 -73
-20 -25 -6 -61 -14 -80 -19 -19 -5 -57 -14 -85 -20 -27 -7 -54 -16 -60 -21 -5
-5 -19 -9 -32 -9 -12 0 -32 -4 -45 -9 -13 -5 -52 -17 -88 -26 -86 -24 -153
-43 -220 -65 -30 -10 -82 -26 -115 -36 -33 -9 -64 -21 -69 -26 -6 -4 -20 -8
-33 -8 -13 0 -31 -4 -41 -9 -9 -5 -93 -35 -187 -66 -93 -32 -174 -61 -179 -66
-6 -5 -19 -9 -31 -9 -12 0 -25 -4 -31 -8 -5 -5 -31 -17 -59 -26 -27 -10 -59
-21 -70 -26 -11 -4 -56 -22 -100 -40 -150 -61 -219 -92 -335 -150 -164 -82
-259 -140 -329 -202 -79 -69 -96 -115 -65 -176 16 -33 93 -102 113 -102 6 0
11 -4 11 -9 0 -10 117 -58 220 -91 79 -26 250 -65 360 -84 52 -8 109 -18 125
-21 17 -3 75 -10 130 -15 55 -5 138 -13 185 -19 47 -5 214 -15 373 -22 290
-13 559 -4 722 23 33 5 89 13 125 18 151 20 231 42 267 73 12 11 19 26 16 33
-12 31 -120 57 -278 68 -38 3 -133 10 -210 15 -77 6 -207 16 -290 21 -253 19
-431 36 -475 46 -14 4 -50 10 -80 14 -30 5 -73 13 -95 18 -37 8 -54 15 -125
45 -79 34 -114 90 -92 148 12 29 77 97 107 110 11 5 52 29 90 54 39 24 73 44
77 45 4 0 42 16 85 36 43 20 87 40 98 44 11 5 46 20 78 34 32 14 61 26 65 26
9 0 142 49 164 61 10 5 23 9 29 9 6 0 25 6 42 14 36 16 272 98 362 126 53 16
153 49 210 70 11 4 79 26 150 49 239 78 502 172 590 211 22 10 45 20 50 22 27
9 115 64 120 76 2 7 -6 17 -20 22 -30 12 -118 24 -125 17z"/>
<path d="M1945 3069 c-8 -12 13 -69 25 -69 5 0 15 -6 22 -13 14 -14 153 -59
233 -76 83 -17 172 -29 330 -46 229 -25 618 -71 710 -85 28 -4 66 -13 85 -19
19 -6 51 -17 70 -23 55 -16 100 -55 100 -84 0 -62 -127 -156 -370 -274 -47
-22 -108 -52 -135 -65 -28 -14 -53 -25 -57 -25 -4 0 -35 -13 -70 -29 -91 -42
-281 -121 -290 -121 -5 0 -30 -9 -56 -21 -116 -51 -102 -45 -357 -145 -66 -25
-133 -52 -150 -59 -16 -7 -46 -18 -65 -25 -38 -14 -81 -32 -134 -55 -19 -8
-37 -15 -40 -15 -3 0 -25 -9 -49 -19 -23 -11 -87 -38 -142 -61 -55 -22 -110
-45 -122 -50 -13 -6 -33 -14 -45 -18 -13 -5 -48 -21 -78 -35 -30 -14 -95 -44
-145 -67 -49 -22 -97 -44 -105 -49 -8 -4 -40 -20 -70 -36 -61 -32 -224 -131
-254 -155 -94 -74 -139 -142 -123 -185 25 -64 238 -72 497 -19 14 2 43 7 65
10 22 4 74 15 115 26 41 11 93 23 115 28 22 4 65 15 95 23 30 9 96 28 145 42
50 14 104 30 120 35 86 24 182 53 200 60 11 4 45 15 75 25 30 9 62 19 70 22
80 29 306 107 345 119 28 9 54 20 59 25 6 5 17 9 25 9 9 0 28 6 42 14 14 7 38
16 53 20 16 4 47 15 70 25 22 10 57 24 76 31 19 7 49 18 65 25 17 7 64 25 105
40 41 16 79 32 85 37 5 4 15 8 22 8 7 0 36 11 65 25 28 14 56 25 61 25 6 0 35
12 66 26 31 14 67 31 81 36 40 16 94 39 112 49 10 5 22 9 27 9 5 0 58 23 117
51 60 28 125 58 144 66 159 72 693 335 835 412 28 15 82 45 120 66 79 43 222
127 275 161 74 48 94 52 255 43 450 -23 1651 -12 2165 21 85 5 238 15 340 21
175 11 246 15 570 38 74 5 182 14 240 20 58 6 155 16 215 21 137 14 291 31
605 70 135 17 265 33 290 35 25 3 74 9 110 15 154 23 228 33 270 37 25 2 54 8
65 13 11 5 40 11 65 13 86 8 230 31 230 38 0 4 -14 9 -31 13 -58 11 -8447 7
-8454 -5z"/>
<path d="M4883 2207 c-20 -26 -51 -95 -46 -101 4 -3 2 -6 -3 -6 -6 0 -18 -19
-28 -42 -32 -73 -116 -260 -146 -323 -15 -33 -45 -96 -65 -140 -89 -193 -106
-225 -115 -225 -6 0 -10 -6 -10 -12 0 -7 -20 -21 -45 -31 -25 -11 -45 -23 -45
-28 0 -5 68 -9 150 -9 93 0 150 4 150 10 0 6 -3 10 -7 11 -68 7 -103 28 -103
59 0 29 73 195 94 215 6 6 25 9 41 9 17 -1 101 -2 188 -3 141 -1 158 -3 163
-18 4 -10 15 -37 25 -61 41 -90 50 -121 47 -149 -2 -23 -11 -31 -45 -43 -82
-28 -51 -35 142 -32 102 2 185 7 185 11 0 5 -20 16 -45 25 -61 24 -80 54 -193
306 -16 36 -39 85 -50 110 -11 25 -39 88 -62 140 -23 52 -52 118 -65 145 -13
28 -37 80 -53 116 -33 72 -45 86 -59 66z m4 -268 c13 -24 37 -75 54 -114 17
-38 40 -89 51 -113 33 -71 30 -73 -142 -71 -82 0 -153 5 -156 10 -3 5 15 51
39 102 24 50 52 110 61 132 10 22 22 47 27 55 5 8 12 23 16 33 9 27 26 16 50
-34z"/>
<path d="M6717 2210 c-110 -28 -227 -104 -282 -184 -85 -123 -115 -267 -87
-405 6 -30 16 -59 22 -65 5 -5 10 -16 10 -23 0 -20 49 -90 96 -139 130 -133
383 -166 565 -74 58 30 169 143 169 172 0 19 -22 4 -86 -60 -90 -89 -141 -107
-286 -100 -55 3 -104 10 -111 17 -6 6 -19 11 -28 11 -22 0 -112 81 -140 127
-73 117 -74 375 -3 512 59 113 141 163 277 169 98 4 153 -10 217 -57 45 -33
52 -43 91 -119 18 -34 37 -61 43 -59 6 3 10 8 10 13 -1 5 -5 63 -9 129 -4 66
-9 123 -12 128 -8 13 -33 7 -33 -8 0 -31 -63 -45 -103 -23 -70 39 -236 59
-320 38z"/>
<path d="M9210 2213 c-124 -22 -277 -123 -326 -215 -49 -95 -58 -119 -69 -181
-25 -148 22 -309 120 -410 59 -61 104 -88 191 -116 178 -57 360 -18 476 101
107 110 103 143 -5 42 -99 -93 -143 -108 -280 -101 -96 5 -167 22 -167 39 0 4
-6 8 -12 8 -22 0 -95 77 -117 123 -66 136 -66 335 0 488 27 63 112 141 175
163 64 22 185 21 248 -1 77 -28 151 -105 187 -196 10 -25 35 -33 34 -11 -1 5
-5 66 -9 137 -7 113 -10 127 -27 127 -9 0 -20 -9 -24 -19 -11 -36 -49 -38
-122 -5 -64 29 -191 41 -273 27z"/>
<path d="M7356 2183 c-4 -15 -9 -132 -7 -170 2 -24 21 -13 27 15 4 15 16 39
26 55 33 46 67 57 178 57 l100 0 0 -377 c0 -208 -3 -387 -6 -399 -7 -27 -54
-54 -93 -54 -17 0 -31 -4 -31 -10 0 -6 75 -10 205 -10 113 0 205 4 205 9 0 4
-21 11 -47 14 -35 4 -53 12 -70 32 l-23 26 0 385 0 384 108 0 c131 0 162 -14
195 -90 12 -27 25 -50 30 -50 12 0 8 175 -5 188 -9 9 -111 12 -399 12 -361 0
-388 -1 -393 -17z"/>
<path d="M3844 1824 c-44 -48 -84 -92 -90 -98 -73 -76 -103 -118 -96 -135 4
-10 41 -56 82 -101 41 -46 86 -96 100 -111 14 -15 37 -42 52 -58 24 -27 58
-42 58 -26 0 8 -89 173 -117 217 -12 21 -23 44 -23 53 0 8 -4 15 -10 15 -15 0
-12 26 8 62 30 53 67 119 106 186 20 35 36 68 36 73 0 26 -36 0 -106 -77z"/>
<path d="M4224 1888 c-11 -13 -70 -79 -132 -147 -62 -69 -112 -133 -112 -143
0 -11 24 -45 53 -76 28 -31 70 -77 93 -102 110 -122 129 -140 143 -131 14 9
13 10 -78 171 -17 30 -41 74 -53 98 l-22 43 28 52 c16 29 40 72 53 97 14 25
32 59 41 75 9 17 23 38 30 47 30 37 -13 52 -44 16z"/>
<path d="M9830 1900 c0 -9 33 -72 70 -135 39 -65 80 -150 80 -167 0 -21 -14
-53 -45 -103 -14 -22 -36 -61 -49 -87 -12 -26 -28 -53 -33 -60 -6 -7 -14 -23
-17 -35 -6 -17 -3 -23 9 -23 19 0 30 11 116 110 35 41 72 81 81 90 30 27 88
102 88 113 0 7 -28 42 -63 79 -34 37 -95 103 -136 147 -67 74 -101 97 -101 71z"/>
<path d="M10160 1899 c0 -11 57 -118 71 -133 5 -6 9 -16 9 -24 0 -8 10 -28 23
-45 64 -91 65 -88 -28 -252 -15 -27 -33 -59 -39 -70 -6 -11 -14 -22 -18 -25
-12 -9 -20 -58 -10 -64 10 -6 38 23 157 159 39 44 75 84 80 90 6 5 21 22 34
37 l24 28 -79 87 c-75 84 -121 136 -171 196 -23 27 -53 36 -53 16z"/>
<path d="M5515 1890 c-3 -5 3 -10 13 -10 11 0 30 -8 42 -18 22 -17 23 -28 28
-172 6 -209 -4 -332 -29 -359 -11 -12 -31 -21 -44 -21 -14 0 -25 -4 -25 -10 0
-6 55 -10 145 -10 90 0 145 4 145 10 0 6 -6 10 -12 10 -30 1 -58 38 -58 75 0
30 8 46 40 79 21 22 83 87 136 143 53 57 100 100 105 97 13 -8 11 -295 -2
-335 -14 -41 -34 -59 -67 -59 -13 0 -20 -4 -17 -10 4 -6 67 -10 156 -10 93 0
149 4 149 10 0 6 -11 10 -25 10 -14 0 -34 9 -45 20 -19 19 -20 33 -20 261 0
143 4 248 10 259 6 11 26 22 45 26 70 13 20 24 -108 24 -131 0 -190 -11 -128
-23 22 -5 34 -15 44 -39 15 -35 9 -59 -22 -89 -40 -38 -216 -232 -219 -240 -2
-5 -10 -9 -18 -9 -12 0 -14 30 -14 173 0 164 1 175 21 193 12 10 23 18 25 17
12 -8 44 -2 39 7 -4 6 -63 10 -145 10 -82 0 -141 -4 -145 -10z"/>
<path d="M8303 1643 c-19 -7 -17 -80 3 -87 20 -8 328 -8 348 0 19 7 22 64 4
82 -8 8 -61 12 -177 11 -92 0 -172 -3 -178 -6z"/>
<path d="M2615 1059 c-4 -5 -4 -21 -1 -35 l6 -24 4455 0 4454 0 6 20 c4 12 1
27 -5 35 -11 13 -584 15 -4461 15 -3114 0 -4450 -3 -4454 -11z"/>
<path d="M1576 800 c-61 -24 -77 -39 -110 -101 -50 -96 -28 -194 58 -263 35
-29 43 -31 107 -29 38 1 74 7 81 13 7 6 22 17 32 24 11 7 15 16 9 19 -5 4 -19
-3 -31 -13 -15 -14 -35 -20 -69 -20 -84 1 -114 48 -114 177 0 99 15 133 73
169 36 23 43 24 65 13 28 -15 83 -69 83 -81 0 -4 5 -8 11 -8 6 0 9 19 7 48 -2
37 -6 46 -20 44 -9 -1 -36 2 -60 8 -23 6 -50 12 -58 14 -8 2 -37 -4 -64 -14z"/>
<path d="M6155 810 c-3 -5 3 -17 15 -27 26 -22 35 -73 21 -116 -9 -26 -20 -37
-44 -44 l-32 -9 42 -22 c35 -18 42 -28 48 -61 4 -27 2 -49 -10 -70 -14 -28
-20 -31 -64 -31 -30 0 -51 5 -54 13 -4 9 -6 9 -6 0 -1 -15 24 -29 70 -37 142
-25 223 131 100 194 l-24 12 32 27 c25 22 32 36 34 69 1 47 -20 77 -70 98 -38
17 -50 17 -58 4z"/>
<path d="M8066 806 c-48 -15 -109 -66 -131 -108 -10 -21 -16 -58 -16 -101 0
-57 4 -74 28 -110 40 -60 102 -90 171 -82 30 3 60 11 68 18 7 6 20 18 29 25 8
7 15 18 15 24 0 6 -12 -1 -26 -16 -22 -21 -36 -26 -79 -26 -47 0 -56 4 -79 30
-32 39 -40 82 -33 182 6 87 17 108 76 137 31 15 43 33 24 37 -4 1 -25 -4 -47
-10z"/>
<path d="M3823 803 c-24 -2 -43 -8 -43 -12 0 -4 21 -39 46 -77 70 -106 80
-140 48 -171 -8 -8 -14 -17 -14 -21 0 -4 -20 -28 -45 -54 -25 -27 -45 -50 -45
-53 0 -9 79 -5 84 4 4 5 1 11 -6 13 -14 5 -4 51 15 70 7 7 16 21 20 31 7 17
47 24 47 8 0 -5 6 -16 13 -23 22 -25 37 -57 37 -83 0 -24 2 -25 65 -25 l65 0
-25 38 c-14 20 -28 44 -32 52 -4 8 -22 38 -40 67 -19 30 -33 65 -33 83 0 23
-4 30 -19 30 -20 0 -61 66 -61 99 0 15 -26 37 -33 29 -1 -1 -21 -3 -44 -5z"/>
<path d="M4425 802 l-31 -3 10 -74 c12 -95 4 -107 -68 -103 l-51 3 0 88 1 87
-53 0 c-49 0 -67 -10 -43 -25 14 -9 13 -310 -1 -337 -6 -11 -9 -21 -7 -24 2
-2 28 -4 56 -5 54 -2 76 6 54 20 -9 5 -12 31 -10 87 l3 79 56 3 57 3 6 -34 c6
-33 1 -104 -10 -139 -5 -16 2 -18 61 -18 l66 0 -15 22 c-13 18 -16 53 -16 170
0 80 4 158 9 171 9 22 7 25 -17 28 -15 2 -41 3 -57 1z"/>
<path d="M5280 803 c-27 -10 -50 -42 -50 -68 0 -15 4 -24 10 -20 6 3 10 15 10
25 0 31 17 32 43 4 32 -34 57 -26 57 16 0 24 -6 33 -26 40 -14 6 -26 10 -27 9
-1 0 -9 -3 -17 -6z"/>
<path d="M6895 802 l-140 -3 6 -122 c7 -147 6 -215 -4 -243 -7 -20 -4 -22 31
-25 57 -6 75 0 65 19 -4 10 -8 91 -8 182 l0 165 65 0 65 0 0 -183 0 -182 53 0
c28 0 52 5 52 10 0 6 -5 10 -11 10 -7 0 -9 59 -7 185 3 157 1 184 -12 187 -8
2 -78 2 -155 0z"/>
<path d="M1868 624 c3 -118 0 -180 -7 -187 -21 -21 -10 -27 56 -27 63 0 65 1
50 18 -13 15 -16 42 -13 176 3 178 3 178 76 174 l45 -3 3 -169 c2 -116 -1
-173 -9 -182 -10 -12 0 -14 55 -14 64 0 66 1 56 20 -7 13 -10 86 -9 193 l1
172 -154 3 -153 3 3 -177z"/>
<path d="M2290 793 c-1 -4 0 -86 0 -181 1 -119 -3 -178 -11 -188 -10 -12 9
-14 123 -14 91 0 138 4 146 12 7 7 12 30 11 52 0 34 -2 38 -10 21 -24 -48
-117 -82 -157 -56 -17 10 -13 153 5 158 15 5 46 -29 55 -60 5 -19 6 -17 8 11
2 37 2 81 1 120 l-2 27 -14 -32 c-11 -25 -20 -33 -40 -33 -26 0 -26 0 -23 73
3 67 5 72 27 75 46 7 91 -8 103 -34 17 -36 30 -29 26 14 l-3 37 -122 3 c-68 1
-123 -1 -123 -5z"/>
<path d="M2650 781 c13 -26 14 -341 0 -341 -5 0 -10 -7 -10 -15 0 -13 21 -15
126 -15 138 0 169 -10 214 -67 l20 -26 0 41 c0 31 -5 45 -22 57 -22 15 -23 20
-23 200 l0 185 -48 0 -48 0 1 -157 c3 -237 8 -213 -47 -213 -77 0 -75 -5 -71
194 l3 176 -53 0 c-49 0 -52 -1 -42 -19z"/>
<path d="M3042 783 c-5 -10 -6 -27 -1 -38 4 -11 8 -15 8 -9 1 16 63 47 85 43
16 -4 18 -17 17 -172 -1 -92 -4 -174 -7 -182 -5 -12 4 -15 47 -15 l54 0 0 182
0 183 27 3 c17 2 33 -5 48 -20 16 -18 23 -20 29 -9 5 7 6 22 4 32 -5 18 -17
19 -154 19 -131 0 -149 -2 -157 -17z"/>
<path d="M3438 620 c2 -131 0 -185 -9 -196 -10 -13 6 -14 127 -12 l138 3 9 38
c5 21 7 40 5 43 -3 2 -22 -12 -42 -31 -31 -29 -45 -35 -81 -35 -24 0 -47 6
-51 12 -14 22 -13 137 1 148 19 16 51 -7 63 -44 8 -26 10 -17 11 54 0 81 -1
84 -15 58 -11 -21 -22 -28 -44 -28 l-29 0 2 63 c3 77 9 87 53 87 45 0 70 -14
88 -48 l14 -27 7 27 c15 61 12 63 -125 66 l-125 3 3 -181z"/>
<path d="M4010 791 c0 -6 5 -13 10 -16 7 -4 7 -12 0 -25 -21 -39 -8 -43 25 -8
44 46 44 58 0 58 -19 0 -35 -4 -35 -9z"/>
<path d="M4618 615 c2 -126 0 -185 -7 -185 -6 0 -11 -4 -11 -10 0 -6 26 -10
59 -10 l59 0 -5 38 c-4 36 12 78 64 159 19 29 45 54 52 48 8 -9 -1 -211 -9
-219 -20 -20 -8 -26 51 -26 55 0 60 2 53 18 -13 25 -17 310 -5 343 l10 29 -56
0 c-55 0 -55 0 -50 -27 3 -17 -3 -43 -15 -68 -11 -22 -31 -61 -44 -87 -48 -96
-67 -72 -59 75 l7 107 -49 0 -48 0 3 -185z"/>
<path d="M5038 615 c3 -128 0 -185 -7 -185 -6 0 -11 -4 -11 -10 0 -6 29 -10
67 -10 52 0 64 3 55 12 -12 12 -17 159 -6 171 7 6 44 -35 44 -48 0 -3 14 -35
31 -71 l31 -64 49 0 c27 0 49 5 49 10 0 6 -4 10 -10 10 -5 0 -24 30 -41 66
-18 36 -43 79 -55 94 -21 24 -22 32 -13 60 7 19 8 35 2 41 -5 5 -14 -5 -22
-26 -10 -30 -17 -35 -43 -35 l-30 0 3 85 4 85 -50 0 -50 0 3 -185z"/>
<path d="M6069 793 c0 -5 -2 -17 -4 -27 -2 -11 0 -27 5 -35 8 -13 9 -13 10 4
0 11 9 26 20 33 11 7 20 17 20 22 0 11 -50 14 -51 3z"/>
<path d="M7160 791 c0 -6 5 -13 10 -16 6 -3 10 -44 10 -90 0 -81 1 -84 32
-110 26 -22 39 -26 67 -21 19 3 38 10 41 17 4 6 18 9 31 7 22 -3 24 -8 25 -63
0 -36 -5 -69 -14 -82 -14 -23 -14 -23 46 -23 34 0 64 5 67 10 3 6 1 10 -4 10
-7 0 -11 61 -11 185 l0 185 -44 0 c-44 0 -66 -12 -46 -25 15 -10 10 -152 -6
-166 -18 -15 -70 -14 -90 1 -13 12 -15 30 -12 102 l3 88 -52 0 c-29 0 -53 -4
-53 -9z"/>
<path d="M8140 791 c0 -6 7 -11 15 -11 9 0 32 -17 53 -37 l37 -38 3 39 c2 21
2 39 0 41 -2 1 -27 6 -55 10 -36 5 -53 3 -53 -4z"/>
<path d="M8309 788 c-2 -16 2 -42 6 -46 2 -2 13 6 25 18 14 14 31 20 48 18
l27 -3 3 -172 c2 -113 -1 -173 -8 -173 -5 0 -10 -4 -10 -10 0 -6 27 -10 60
-10 55 0 75 10 50 25 -11 7 -14 302 -4 329 10 26 53 19 85 -15 l29 -31 0 41 0
41 -155 0 c-117 0 -155 -3 -156 -12z"/>
<path d="M8700 621 c0 -99 -3 -186 -6 -195 -5 -14 3 -16 55 -16 60 0 61 0 50
24 -9 19 -8 31 5 57 9 17 16 38 16 46 0 7 3 13 8 13 4 0 16 17 27 38 11 20 26
43 32 50 7 7 13 18 13 23 0 6 5 7 10 4 6 -3 10 -52 10 -112 0 -85 -3 -110 -17
-125 -15 -17 -13 -18 50 -18 66 0 77 6 56 27 -7 7 -10 69 -7 187 l3 176 -52 0
c-52 0 -52 0 -42 -24 9 -20 5 -35 -27 -97 -22 -41 -42 -76 -45 -79 -4 -3 -10
-15 -14 -28 -3 -13 -12 -21 -18 -19 -8 3 -12 42 -12 125 l0 122 -47 0 -48 0 0
-179z"/>
<path d="M9528 784 c-9 -11 -20 -31 -23 -47 -4 -15 -11 -30 -16 -33 -16 -10
-9 -35 15 -57 29 -26 51 -86 37 -100 -6 -6 -2 -17 13 -28 26 -20 38 -68 24
-93 -8 -14 0 -16 57 -16 63 0 75 6 56 25 -5 6 -33 68 -61 140 -29 72 -58 144
-65 160 -7 17 -15 38 -17 49 -3 18 -3 18 -20 0z"/>
<path d="M9786 783 c5 -10 9 -90 9 -179 0 -122 -3 -165 -14 -177 -15 -19 -6
-21 74 -17 44 2 55 7 38 18 -10 6 -16 64 -14 133 1 24 5 27 54 32 41 5 58 13
80 37 35 40 36 93 2 135 -24 29 -27 30 -131 33 -101 4 -106 3 -98 -15z m145
-13 c16 -9 19 -22 19 -75 0 -62 -1 -65 -31 -81 -42 -21 -49 -10 -49 82 0 87
11 100 61 74z"/>
<path d="M10115 605 l0 -195 60 -1 c92 -1 199 2 203 6 2 2 5 20 7 39 4 38 -10
58 -19 28 -9 -27 -67 -54 -112 -50 l-39 3 -3 74 c-2 41 1 78 6 83 13 13 40 -1
48 -24 9 -29 24 -3 24 43 0 46 -7 52 -31 28 -33 -33 -44 -19 -47 66 l-3 78 55
-5 c43 -4 59 -10 75 -29 l19 -24 7 27 c4 15 4 32 0 37 -4 7 -53 11 -128 11
l-122 0 0 -195z"/>
<path d="M10480 775 c13 -34 11 -327 -2 -343 -16 -18 -7 -22 51 -23 58 -2 69
4 52 25 -7 8 -11 39 -10 73 4 95 3 94 68 91 l56 -3 3 -74 c2 -42 -2 -79 -8
-85 -21 -21 -9 -26 58 -26 59 1 65 2 49 15 -17 12 -18 28 -15 194 l3 181 -52
0 c-53 0 -63 -6 -43 -26 6 -6 10 -41 8 -79 l-3 -67 -58 -2 c-53 -2 -58 0 -64
22 -3 13 -3 53 0 88 l6 64 -54 0 c-54 0 -54 0 -45 -25z"/>
<path d="M10964 773 c3 -16 7 -54 8 -85 4 -82 17 -72 20 15 l3 72 40 0 40 0 3
-164 c2 -125 -1 -166 -10 -173 -18 -11 -135 -10 -142 1 -3 5 1 14 9 21 17 14
20 40 5 40 -5 0 -10 -5 -10 -10 0 -6 -18 -27 -40 -47 -30 -28 -40 -45 -40 -68
0 -48 15 -62 29 -26 18 41 65 61 145 61 67 0 124 -17 152 -45 22 -21 34 -19
34 8 0 13 -12 33 -26 46 l-25 22 3 179 3 180 -103 0 -104 0 6 -27z"/>
<path d="M11406 779 c-8 -14 -22 -44 -31 -68 -14 -42 -14 -44 8 -61 21 -17 54
-87 44 -96 -2 -3 -21 -7 -40 -11 -33 -5 -37 -3 -51 28 -8 19 -15 26 -15 17 -1
-9 -6 -29 -13 -45 -6 -15 -10 -33 -9 -39 0 -6 -6 -17 -14 -24 -8 -7 -15 -17
-15 -23 0 -6 -7 -19 -17 -29 -15 -17 -14 -18 25 -18 38 0 57 13 31 22 -11 4
-19 40 -10 48 3 3 11 14 17 25 8 15 23 21 61 23 61 4 88 -20 88 -79 l0 -39 62
0 c51 0 61 3 57 15 -4 8 -10 15 -15 15 -5 0 -9 9 -9 19 0 11 -4 22 -9 26 -5 3
-17 29 -26 58 -10 28 -21 56 -26 61 -5 6 -9 16 -9 24 0 7 -11 38 -25 68 -14
30 -25 60 -25 67 0 7 -4 18 -9 26 -7 11 -12 9 -25 -10z"/>
<path d="M5545 756 c-8 -20 -22 -52 -30 -72 -18 -43 -19 -54 -5 -54 6 0 10 9
10 20 0 34 18 22 40 -24 23 -51 26 -82 8 -89 -8 -4 -7 -6 3 -6 25 -1 51 -48
47 -84 l-3 -32 62 -3 62 -3 -23 48 c-29 57 -32 65 -90 213 -25 63 -50 116 -56
118 -6 2 -17 -12 -25 -32z"/>
<path d="M6504 772 c-4 -9 -17 -41 -30 -70 -26 -58 -29 -72 -14 -72 6 0 10 7
10 15 0 8 6 15 13 15 21 0 51 -74 43 -104 -4 -15 -2 -26 4 -26 17 0 42 -61 38
-91 l-5 -29 64 0 63 0 -18 33 c-10 17 -38 84 -62 147 -24 63 -47 120 -50 125
-4 6 -10 22 -14 36 -7 33 -34 46 -42 21z"/>
<path d="M7704 772 c-9 -26 -34 -85 -44 -104 -6 -10 -10 -25 -10 -33 0 -8 -4
-15 -10 -15 -5 0 -10 -12 -10 -26 0 -14 -6 -38 -14 -52 -8 -15 -21 -44 -30
-64 -9 -20 -21 -40 -26 -43 -21 -13 -9 -25 25 -25 19 0 35 5 35 10 0 6 -4 10
-10 10 -5 0 -10 13 -10 28 0 35 34 69 75 75 30 4 30 4 3 6 -21 1 -29 8 -34 28
-4 15 -2 33 5 42 6 9 15 26 21 39 5 12 12 22 14 22 11 0 39 -73 40 -103 1 -18
11 -43 24 -57 18 -20 22 -33 19 -62 l-5 -38 64 0 c36 0 64 4 64 10 0 6 -3 10
-8 10 -4 0 -13 15 -21 33 -29 67 -39 94 -66 162 -15 39 -31 79 -36 90 -4 11
-10 30 -14 42 -8 28 -34 38 -41 15z"/>
<path d="M11343 634 c-3 -8 -1 -20 6 -27 8 -8 11 -4 11 16 0 30 -7 35 -17 11z"/>
<path d="M9460 624 c0 -8 5 -12 10 -9 6 3 10 10 10 16 0 5 -4 9 -10 9 -5 0
-10 -7 -10 -16z"/>
<path d="M6437 613 c-4 -3 -7 -14 -7 -24 0 -9 -7 -29 -14 -45 -18 -34 -10 -52
13 -27 9 11 16 35 16 61 0 23 0 42 -1 42 0 0 -4 -3 -7 -7z"/>
<path d="M5482 592 c-1 -12 -9 -34 -18 -47 -23 -36 -14 -45 26 -24 19 11 27
19 18 19 -12 0 -18 11 -21 38 -2 20 -4 27 -5 14z"/>
<path d="M10956 584 c-10 -25 -7 -74 4 -74 6 0 10 20 10 45 0 47 -4 55 -14 29z"/>
<path d="M9441 582 c-1 -8 -8 -29 -17 -48 -19 -40 -11 -58 12 -26 8 12 25 23
37 23 16 1 17 3 5 6 -9 2 -21 16 -27 31 -5 15 -10 21 -10 14z"/>
<path d="M6382 467 c-6 -15 -18 -30 -27 -33 -8 -3 -12 -10 -9 -15 7 -12 74
-11 74 1 0 6 -4 10 -9 10 -6 0 -11 15 -13 33 l-4 32 -12 -28z"/>
<path d="M5420 453 c-8 -16 -16 -31 -18 -35 -2 -5 12 -8 32 -8 35 0 35 0 24
28 -18 42 -24 45 -38 15z"/>
<path d="M9385 450 c-3 -11 -11 -20 -16 -20 -5 0 -9 -4 -9 -10 0 -5 15 -10 34
-10 19 0 38 5 41 10 3 6 2 10 -4 10 -5 0 -13 9 -16 20 -3 11 -10 20 -15 20 -5
0 -12 -9 -15 -20z"/>
</g>
</svg>
